<svg xmlns="http://www.w3.org/2000/svg" viewBox="0 0 380 602">
  <g fill="none" fill-rule="evenodd">
    <path fill="#F4F0DB" d="M347 274l5 27 7 20-18 92-75 138-157-14-62-116-27-107 14-13-6-151 149-84 138 55z"/>
    <path fill="#102F65" d="M34.33 307.31l1.17 1.19c1.45-10.83 11.86-68.24 7-75l2-2-5-10-2 2-2-4 7-14-2-6c2.96-4.43 5.97-9.06 8-14l-2-2c7.45-20.66 18.14-37.8 34-53h5l-1-4c14.92-2.52 37.34-9.93 49-18l5 2 12-4c-2.45-2.27-.97-5.15 2-6l8 6 2-2v-6l4-2 6 4 3-2 7 4 7-6 5 5 3-3 8 3 3-2 14 4 14-6 2 2-6 5c35.58 18.75 40.66 23 69 49 16.09 1.98 23.4 17.93 29 31l-2 4 2 3c-4.4 15 13.28 90.23 21.2 120.06l-.2-.06c3.35 19.98-6.4 59.2-6 61-6.22 3.55-10.33 20.43-13 27 1.6 3.5-19.42 34.33-21 43 2.4 0 1.7 4.3 0 5l-4-1c2.15 5.62-2 14.41-2 21-1.92.55-4.07 2.9-4 5-3 1.12-13.34 5.32-14 9l-3-3c-3.58 9.02-3.6 16.25-14 20l-1 6-2 2 3 7c-5 2.5-15.9 8.78-16 15l-10 3-17-6-10 2-13-11-5 2c-1.38-4.71 2.83-8.1 7-9 3.5-4.85 4.33-15.96 13-13l10-14c-6.32-2.27-19.38-2.56-25 2l-8-4c-8.1 1.32-19.6-1.2-27-4l-5 3c3.57 5.33 8.68 9.5 12 15l6 3c2.63 11.24 7.37 12.76 14 21-.67 1.68-3.37 2.65-5 2-20.6-33.3-8.97 20.69-47 5l-16 6-2-1v-7l-9-1-2.78-4.9.57-1.2-.79-2.9c-1.6-3.45-4.23-6.09-5-10h-5c-.57-3.42-.64-9.23 2-12l-2-3 5-3c-.9-14.14 9.1-24.82 17-36v-10c19.08-13.94 43.3-8.09 64-7 25.16 1.32 44.88 4.25 62.78 14.12-8.47-1.2-17.15-1.64-23.78-4.12-7-2-18.25-6-21.25-6-2 0-20.5 1.5-22.5 1.5-3 0-21-3.5-24-3.5-10 0-21.75 5.5-32.75 5.5 0 3 9.25 9.75 12.25 9.75 0 0 17.25 14.75 33.25 15.75 4 1 27 2.5 37 2.25 3-.07 36.25-9.75 43-17.25 2-2.23-.24-2.69.63-2.82 10.47 6.1 20.35 14.68 30.37 26.82l3-1-3-9 4-12c-4.98-23.58-15.22-17.5-23-35l-16-8 1-3c-4.2-1.5-13.9-5.32-15-10l-2-2c-6.02 4.03-12.63-3.87-19-3-14.16-13.91-17.1 6.74-26 13l-9-11c-4.74.06-10.15-2.46-14-5-5.7 1.9-11.96 3.93-18 4l-6 7-4-2-11 13-14-3c-5.42 6.95-7.89 15.9-14 22l-1 6 2 5-10 20 2 2c-2.4 2.75-5.27 8.18-4 12-6.45-3.22-9.33-6.88-15-11-.12-13.83-2.41-16.61-12-26l2-18-10-5-2-12c1.88-.28 4.15-3.1 3-5l-5-2-2-9 2-4-1-7c-10.06-.85-6.3-10.29-12-16l-.81-39.82c.36-3.73.81-6.98.81-8.18 0-1.14-.87-2.58-2.17-4.19zM248.5 28.5c-37.38-17.02-76.01-12.24-112-28l-5 1-5 7c-15.98 6.07-13.16 6.07-22 18-8.35.96-23.25-6.64-15 12l-3 3c-.99-.09-1.24 7.75-2 10l-6-4-1 7c-3.5-1.35-7.13 1.14-9 4l-6-3c.59 3.23.4 8.4-2 11 4.75 6.58-9.05 9.63-10 16l5 2c.2 4.4-17.41 14.55-21 17 1.19 1.58-1.83 3.7-3 4l-6 13c1.39 1.83 1.74 4.82 2 7l2 2-7 6c-.03 9.4-15 17.04-15 32l2 2c.11 21.5-13.64 47.33-7 70 10.81 8.87 6.23 27.43 17 35 3 8.93 7.37 15.16 7 25a47.5 47.5 0 003.8 5.31 79.43 79.43 0 01-3.8-4.31h-4c-9 0-10 4-10 11 0 3 0 22 3 33 1 4 4 8 4 11 0-1 1-2 1-2 4 11 7 22 12 32l.65-1.95.35.95c-1.81 3.8-.55 30.13 4 33 .73 8.82.1 32.61 7 38-.63 4.78 2.4 11.9 6 15 0 9.08 9.85 17.98 12 28l2-2 1 8c4.22 1.73 28.73 37.59 33 44 9.38 1.62 20.27 26.46 38 29 3.89 7.75 11.02 10.48 19 12l2 3 14 6 3-2 4 3c13.36 1.02 23.22 8.73 37 0l4 2c4.93-3.04 12.38-3.94 18-3l9-6c22.52-11.85 30.05-27.17 49-39 1.21-5.47 5.56-10.7 9-15-.86-6.8 31.96-58.38 32-74l3 1-1 4c1.98-2.68 2.87-6.74 3-10l3-3-2-4c8.82-8.24 2.78-31.66 8-39 0-6.22 3.1-25.77 5.28-45.96.46 1.15 1.04 2.37 1.72 3.96 0-3 2-7 2-10 1-5-1-11 0-14 2-12 11-30 11-43 0-6-2-14-14-14-1 0-2.5-.37-3.88-.88.58-2.5 1.8-4.9 3.88-7.12-.06-6.75 5.24-5.85 9-11 2.18-2.99 10.38-38.28 14-47l-3-7 3-6c-1.84-16.63-1.68-36.6-7-52l4-6c-1.7-.7-2.4-5 0-5l-13-27 2-3c-5.27-4.48-17.9-9.58-19-17-23.53-5.02-14.67-33.08-53-38l-5 2-2-1c.7-6.66-4.6-14.26-9-19l-6 7-9-15 2-2-11-6-2-6-6-5-1 2 5 6-1 4zm-207 225v-4a3.01 3.01 0 010 4zm196 33c4-5 9-9 11-12-6 1-13 7-16 12v3c4 1 8.98 1 12.98 1-3-.01-5.99-2-7.98-4zm-145-2c0-3 7-6 10-9-7 1-19 7-24 12 5 0 10-1 14 0 3 0 6 3 8 3-3-2-8-4-8-6zm211-1c-6-1-12-3-19-6 2 2 5 4 5 6 0 3-2 4-3 6h9c3 0 7-3 10-4-1-1-2-1-2-2zm-153 2c-3-1-7-3-10-5 2 2 4 2 4 5 0 2-4 6-6 6h4c3 0 5-1 8-3v-3zm158-9c-15-12-23-15-40-15-13 0-24 3-37 15 10-8 26-13 37-13 14 0 24 7 40 13zm-154 4c-14-10-26-16-40-16-8 0-41 8-45 20 21-10 29-18 47-18 12 0 26 10 38 14zm111-7v4l-7-1c0-1 1-2 2-3h5zm14 7c0-9-4-10-14-10-6 0-14 0-14 10 0 7 3 12 13 12 6 0 15-3 15-12zm-159-2l-9-1c0-1 2-2 5-2 2 0 3 0 4 3zm13 3c0-8-9-10-15-10-10 0-13 2-13 10 0 9 3 11 13 11 6 0 15-2 15-11zm177-36c-11-4-20-11-31-11-16 0-34 7-50 12 1 0 2 0 3 1-4 1-8 3-12 6v5c11-2 20-3 28-4h23c10 0 33-4 39-6v-3zm-169-7c-11-4-32-3-34-3-3 0-10 0-15 1-3 0-37 11-37 23 0 2 0 2 1 3h8c4 0 31-9 43-9 3 0 44 7 46 7 3 0 8 0 9-4-7-5-14-15-21-18zm38 132h-7c-4 2-8 4-12 8v4h10c3 0 10-7 10-9 0-3-1-2-1-3zm42 8c0-4-8-7-11-7-2 0-5 1-7 1v4c4 1 10 6 13 6 2 0 5-2 5-4z" />
  </g>
</svg>
